{
    "asset" : {
        "generator" : "Khronos glTF Blender I/O v0.9.2",
        "version" : "2.0"
    },
    "scene" : 0,
    "scenes" : [
        {
            "name" : "Scene",
            "nodes" : [
                0,
                1,
                2,
                3,
                4,
                5,
                6,
                7,
                8,
                9,
                10,
                11,
                12
            ]
        }
    ],
    "nodes" : [
        {
            "name" : "Light",
            "rotation" : [
                0.16907575726509094,
                0.7558803558349609,
                -0.27217137813568115,
                0.570947527885437
            ],
            "translation" : [
                4.056062698364258,
                6.226062774658203,
                -1.0150823593139648
            ]
        },
        {
            "name" : "Camera",
            "rotation" : [
                0.483536034822464,
                0.33687159419059753,
                -0.20870360732078552,
                0.7804827094078064
            ],
            "translation" : [
                7.338708877563477,
                5.280509948730469,
                6.916162490844727
            ]
        },
        {
            "mesh" : 0,
            "name" : ">",
            "rotation" : [
                0.7068712115287781,
                0,
                0,
                0.707342267036438
            ],
            "scale" : [
                194.7037353515625,
                -31.48088836669922,
                194.70370483398438
            ],
            "translation" : [
                0.8513047099113464,
                2.040365219116211,
                -0.0009313903283327818
            ]
        },
        {
            "mesh" : 1,
            "name" : "A",
            "rotation" : [
                0.7068712115287781,
                0,
                0,
                0.707342267036438
            ],
            "scale" : [
                194.7037353515625,
                -31.48088836669922,
                194.70370483398438
            ],
            "translation" : [
                -4.253993034362793,
                0.5946895480155945,
                -0.00039368667057715356
            ]
        },
        {
            "mesh" : 2,
            "name" : "C1",
            "rotation" : [
                0.7068712115287781,
                0,
                0,
                0.707342267036438
            ],
            "scale" : [
                194.7037353515625,
                -31.48088836669922,
                194.70370483398438
            ],
            "translation" : [
                -3.147667646408081,
                0.63995760679245,
                -0.00041052326560020447
            ]
        },
        {
            "mesh" : 3,
            "name" : "C2",
            "rotation" : [
                0.7068712115287781,
                0,
                0,
                0.707342267036438
            ],
            "scale" : [
                194.7037353515625,
                -31.48088836669922,
                194.70370483398438
            ],
            "translation" : [
                -2.0762667655944824,
                0.63995760679245,
                -0.00041052326560020447
            ]
        },
        {
            "mesh" : 4,
            "name" : "E1",
            "rotation" : [
                0.7068712115287781,
                0,
                0,
                0.707342267036438
            ],
            "scale" : [
                194.7037353515625,
                -31.48088836669922,
                194.70370483398438
            ],
            "translation" : [
                -1.0007380247116089,
                0.6590657830238342,
                -0.0004176265501882881
            ]
        },
        {
            "mesh" : 5,
            "name" : "Curve.005",
            "rotation" : [
                0.7372773289680481,
                0,
                0,
                0.6755902171134949
            ],
            "scale" : [
                31.58550262451172,
                -9.1470947265625,
                31.58550262451172
            ],
            "translation" : [
                -0.1740446835756302,
                -0.0033928081393241882,
                -0.000806143507361412
            ]
        },
        {
            "mesh" : 6,
            "name" : "N",
            "rotation" : [
                0.7068712115287781,
                0,
                0,
                0.707342267036438
            ],
            "scale" : [
                194.7037353515625,
                -31.48088836669922,
                194.70370483398438
            ],
            "translation" : [
                0.09316360950469971,
                0.7540625929832458,
                -0.00045296206371858716
            ]
        },
        {
            "mesh" : 7,
            "name" : "T",
            "rotation" : [
                0.7068712115287781,
                0,
                0,
                0.707342267036438
            ],
            "scale" : [
                194.7037353515625,
                -31.48088836669922,
                194.70370483398438
            ],
            "translation" : [
                1.0420782566070557,
                0.8486739993095398,
                -0.0004881493514403701
            ]
        },
        {
            "mesh" : 8,
            "name" : "U",
            "rotation" : [
                0.7068712115287781,
                0,
                0,
                0.707342267036438
            ],
            "scale" : [
                194.7037353515625,
                -31.48088836669922,
                194.70370483398438
            ],
            "translation" : [
                1.9676932096481323,
                0.6060086488723755,
                -0.00039789112634025514
            ]
        },
        {
            "mesh" : 9,
            "name" : "R",
            "rotation" : [
                0.7068712115287781,
                0,
                0,
                0.707342267036438
            ],
            "scale" : [
                194.7037353515625,
                -31.48088836669922,
                194.70370483398438
            ],
            "translation" : [
                2.893122434616089,
                0.8397462964057922,
                -0.00048482941929250956
            ]
        },
        {
            "mesh" : 10,
            "name" : "E2",
            "rotation" : [
                0.7068712115287781,
                0,
                0,
                0.707342267036438
            ],
            "scale" : [
                194.7037353515625,
                -31.48088836669922,
                194.70370483398438
            ],
            "translation" : [
                3.850486993789673,
                0.6350364089012146,
                -0.0004086846311111003
            ]
        }
    ],
    "materials" : [
        {
            "name" : "Material >",
            "pbrMetallicRoughness" : {
                "baseColorFactor" : [
                    0,
                    0.2746773064136505,
                    1,
                    1
                ],
                "metallicFactor" : 0,
                "roughnessFactor" : 0.5
            }
        },
        {
            "name" : "SVGMat",
            "pbrMetallicRoughness" : {
                "baseColorFactor" : [
                    0.8275641202926636,
                    0.8275641202926636,
                    0.8275641202926636,
                    1
                ],
                "metallicFactor" : 0.6262626051902771,
                "roughnessFactor" : 0.3989899158477783
            }
        }
    ],
    "meshes" : [
        {
            "name" : ">",
            "primitives" : [
                {
                    "attributes" : {
                        "POSITION" : 0,
                        "NORMAL" : 1
                    },
                    "indices" : 2,
                    "material" : 0
                }
            ]
        },
        {
            "name" : "A",
            "primitives" : [
                {
                    "attributes" : {
                        "POSITION" : 3,
                        "NORMAL" : 4
                    },
                    "indices" : 5,
                    "material" : 1
                }
            ]
        },
        {
            "name" : "C1",
            "primitives" : [
                {
                    "attributes" : {
                        "POSITION" : 6,
                        "NORMAL" : 7
                    },
                    "indices" : 8,
                    "material" : 1
                }
            ]
        },
        {
            "name" : "C2",
            "primitives" : [
                {
                    "attributes" : {
                        "POSITION" : 9,
                        "NORMAL" : 10
                    },
                    "indices" : 11,
                    "material" : 1
                }
            ]
        },
        {
            "name" : "E1",
            "primitives" : [
                {
                    "attributes" : {
                        "POSITION" : 12,
                        "NORMAL" : 13
                    },
                    "indices" : 14,
                    "material" : 1
                }
            ]
        },
        {
            "name" : "CUCurve.005",
            "primitives" : [
                {
                    "attributes" : {
                        "POSITION" : 15,
                        "NORMAL" : 16
                    },
                    "indices" : 17,
                    "material" : 1
                }
            ]
        },
        {
            "name" : "N",
            "primitives" : [
                {
                    "attributes" : {
                        "POSITION" : 18,
                        "NORMAL" : 19
                    },
                    "indices" : 20,
                    "material" : 1
                }
            ]
        },
        {
            "name" : "T",
            "primitives" : [
                {
                    "attributes" : {
                        "POSITION" : 21,
                        "NORMAL" : 22
                    },
                    "indices" : 23,
                    "material" : 1
                }
            ]
        },
        {
            "name" : "U",
            "primitives" : [
                {
                    "attributes" : {
                        "POSITION" : 24,
                        "NORMAL" : 25
                    },
                    "indices" : 26,
                    "material" : 1
                }
            ]
        },
        {
            "name" : "R",
            "primitives" : [
                {
                    "attributes" : {
                        "POSITION" : 27,
                        "NORMAL" : 28
                    },
                    "indices" : 29,
                    "material" : 1
                }
            ]
        },
        {
            "name" : "E2",
            "primitives" : [
                {
                    "attributes" : {
                        "POSITION" : 30,
                        "NORMAL" : 31
                    },
                    "indices" : 32,
                    "material" : 1
                }
            ]
        }
    ],
    "accessors" : [
        {
            "bufferView" : 0,
            "componentType" : 5126,
            "count" : 32,
            "max" : [
                0.002866629511117935,
                0.009999999776482582,
                0.0024064930621534586
            ],
            "min" : [
                -0.001677241176366806,
                -0.009999999776482582,
                -0.0023903697729110718
            ],
            "type" : "VEC3"
        },
        {
            "bufferView" : 1,
            "componentType" : 5126,
            "count" : 32,
            "type" : "VEC3"
        },
        {
            "bufferView" : 2,
            "componentType" : 5123,
            "count" : 72,
            "type" : "SCALAR"
        },
        {
            "bufferView" : 3,
            "componentType" : 5126,
            "count" : 763,
            "max" : [
                0.0023887122515589,
                0.009999999776482582,
                0.002318538725376129
            ],
            "min" : [
                -0.002268049633130431,
                -0.009999999776482582,
                -0.0032126312144100666
            ],
            "type" : "VEC3"
        },
        {
            "bufferView" : 4,
            "componentType" : 5126,
            "count" : 763,
            "type" : "VEC3"
        },
        {
            "bufferView" : 5,
            "componentType" : 5123,
            "count" : 2019,
            "type" : "SCALAR"
        },
        {
            "bufferView" : 6,
            "componentType" : 5126,
            "count" : 550,
            "max" : [
                0.0024358443915843964,
                0.009999999776482582,
                0.002550366334617138
            ],
            "min" : [
                -0.002474922686815262,
                -0.009999999776482582,
                -0.0029801339842379093
            ],
            "type" : "VEC3"
        },
        {
            "bufferView" : 7,
            "componentType" : 5126,
            "count" : 550,
            "type" : "VEC3"
        },
        {
            "bufferView" : 8,
            "componentType" : 5123,
            "count" : 1500,
            "type" : "SCALAR"
        },
        {
            "bufferView" : 9,
            "componentType" : 5126,
            "count" : 560,
            "max" : [
                0.002408343367278576,
                0.009999999776482582,
                0.002550366334617138
            ],
            "min" : [
                -0.002474200911819935,
                -0.009999999776482582,
                -0.0029801339842379093
            ],
            "type" : "VEC3"
        },
        {
            "bufferView" : 10,
            "componentType" : 5126,
            "count" : 560,
            "type" : "VEC3"
        },
        {
            "bufferView" : 11,
            "componentType" : 5123,
            "count" : 1500,
            "type" : "SCALAR"
        },
        {
            "bufferView" : 12,
            "componentType" : 5126,
            "count" : 653,
            "max" : [
                0.0024725329130887985,
                0.009999999776482582,
                0.002676723524928093
            ],
            "min" : [
                -0.0024946797639131546,
                -0.009999999776482582,
                -0.002881994005292654
            ],
            "type" : "VEC3"
        },
        {
            "bufferView" : 13,
            "componentType" : 5126,
            "count" : 653,
            "type" : "VEC3"
        },
        {
            "bufferView" : 14,
            "componentType" : 5123,
            "count" : 1653,
            "type" : "SCALAR"
        },
        {
            "bufferView" : 15,
            "componentType" : 5126,
            "count" : 6,
            "max" : [
                9.408220648765564e-06,
                0.009999999776482582,
                0
            ],
            "min" : [
                -1.8814578652381897e-05,
                -0.009999999776482582,
                0
            ],
            "type" : "VEC3"
        },
        {
            "bufferView" : 16,
            "componentType" : 5126,
            "count" : 6,
            "type" : "VEC3"
        },
        {
            "bufferView" : 17,
            "componentType" : 5123,
            "count" : 15,
            "type" : "SCALAR"
        },
        {
            "bufferView" : 18,
            "componentType" : 5126,
            "count" : 399,
            "max" : [
                0.0024705827236175537,
                0.009999999776482582,
                0.003023543395102024
            ],
            "min" : [
                -0.002214401960372925,
                -0.009999999776482582,
                -0.0023940899409353733
            ],
            "type" : "VEC3"
        },
        {
            "bufferView" : 19,
            "componentType" : 5126,
            "count" : 399,
            "type" : "VEC3"
        },
        {
            "bufferView" : 20,
            "componentType" : 5123,
            "count" : 1026,
            "type" : "SCALAR"
        },
        {
            "bufferView" : 21,
            "componentType" : 5126,
            "count" : 342,
            "max" : [
                0.001407027244567871,
                0.009999999776482582,
                0.003594118170440197
            ],
            "min" : [
                -0.0017539262771606445,
                -0.009999999776482582,
                -0.0034036575816571712
            ],
            "type" : "VEC3"
        },
        {
            "bufferView" : 22,
            "componentType" : 5126,
            "count" : 342,
            "type" : "VEC3"
        },
        {
            "bufferView" : 23,
            "componentType" : 5123,
            "count" : 834,
            "type" : "SCALAR"
        },
        {
            "bufferView" : 24,
            "componentType" : 5126,
            "count" : 463,
            "max" : [
                0.0022411756217479706,
                0.009999999776482582,
                0.002376004122197628
            ],
            "min" : [
                -0.0024720318615436554,
                -0.009999999776482582,
                -0.003041628748178482
            ],
            "type" : "VEC3"
        },
        {
            "bufferView" : 25,
            "componentType" : 5126,
            "count" : 463,
            "type" : "VEC3"
        },
        {
            "bufferView" : 26,
            "componentType" : 5123,
            "count" : 1158,
            "type" : "SCALAR"
        },
        {
            "bufferView" : 27,
            "componentType" : 5126,
            "count" : 197,
            "max" : [
                0.0016369149088859558,
                0.009999999776482582,
                0.0034353984519839287
            ],
            "min" : [
                -0.0014393702149391174,
                -0.009999999776482582,
                -0.001954017672687769
            ],
            "type" : "VEC3"
        },
        {
            "bufferView" : 28,
            "componentType" : 5126,
            "count" : 197,
            "type" : "VEC3"
        },
        {
            "bufferView" : 29,
            "componentType" : 5123,
            "count" : 474,
            "type" : "SCALAR"
        },
        {
            "bufferView" : 30,
            "componentType" : 5126,
            "count" : 637,
            "max" : [
                0.0021386630833148956,
                0.009999999776482582,
                0.002553308382630348
            ],
            "min" : [
                -0.0028285495936870575,
                -0.009999999776482582,
                -0.003005409147590399
            ],
            "type" : "VEC3"
        },
        {
            "bufferView" : 31,
            "componentType" : 5126,
            "count" : 637,
            "type" : "VEC3"
        },
        {
            "bufferView" : 32,
            "componentType" : 5123,
            "count" : 1650,
            "type" : "SCALAR"
        }
    ],
    "bufferViews" : [
        {
            "buffer" : 0,
            "byteLength" : 384,
            "byteOffset" : 0
        },
        {
            "buffer" : 0,
            "byteLength" : 384,
            "byteOffset" : 384
        },
        {
            "buffer" : 0,
            "byteLength" : 144,
            "byteOffset" : 768
        },
        {
            "buffer" : 0,
            "byteLength" : 9156,
            "byteOffset" : 912
        },
        {
            "buffer" : 0,
            "byteLength" : 9156,
            "byteOffset" : 10068
        },
        {
            "buffer" : 0,
            "byteLength" : 4038,
            "byteOffset" : 19224
        },
        {
            "buffer" : 0,
            "byteLength" : 6600,
            "byteOffset" : 23264
        },
        {
            "buffer" : 0,
            "byteLength" : 6600,
            "byteOffset" : 29864
        },
        {
            "buffer" : 0,
            "byteLength" : 3000,
            "byteOffset" : 36464
        },
        {
            "buffer" : 0,
            "byteLength" : 6720,
            "byteOffset" : 39464
        },
        {
            "buffer" : 0,
            "byteLength" : 6720,
            "byteOffset" : 46184
        },
        {
            "buffer" : 0,
            "byteLength" : 3000,
            "byteOffset" : 52904
        },
        {
            "buffer" : 0,
            "byteLength" : 7836,
            "byteOffset" : 55904
        },
        {
            "buffer" : 0,
            "byteLength" : 7836,
            "byteOffset" : 63740
        },
        {
            "buffer" : 0,
            "byteLength" : 3306,
            "byteOffset" : 71576
        },
        {
            "buffer" : 0,
            "byteLength" : 72,
            "byteOffset" : 74884
        },
        {
            "buffer" : 0,
            "byteLength" : 72,
            "byteOffset" : 74956
        },
        {
            "buffer" : 0,
            "byteLength" : 30,
            "byteOffset" : 75028
        },
        {
            "buffer" : 0,
            "byteLength" : 4788,
            "byteOffset" : 75060
        },
        {
            "buffer" : 0,
            "byteLength" : 4788,
            "byteOffset" : 79848
        },
        {
            "buffer" : 0,
            "byteLength" : 2052,
            "byteOffset" : 84636
        },
        {
            "buffer" : 0,
            "byteLength" : 4104,
            "byteOffset" : 86688
        },
        {
            "buffer" : 0,
            "byteLength" : 4104,
            "byteOffset" : 90792
        },
        {
            "buffer" : 0,
            "byteLength" : 1668,
            "byteOffset" : 94896
        },
        {
            "buffer" : 0,
            "byteLength" : 5556,
            "byteOffset" : 96564
        },
        {
            "buffer" : 0,
            "byteLength" : 5556,
            "byteOffset" : 102120
        },
        {
            "buffer" : 0,
            "byteLength" : 2316,
            "byteOffset" : 107676
        },
        {
            "buffer" : 0,
            "byteLength" : 2364,
            "byteOffset" : 109992
        },
        {
            "buffer" : 0,
            "byteLength" : 2364,
            "byteOffset" : 112356
        },
        {
            "buffer" : 0,
            "byteLength" : 948,
            "byteOffset" : 114720
        },
        {
            "buffer" : 0,
            "byteLength" : 7644,
            "byteOffset" : 115668
        },
        {
            "buffer" : 0,
            "byteLength" : 7644,
            "byteOffset" : 123312
        },
        {
            "buffer" : 0,
            "byteLength" : 3300,
            "byteOffset" : 130956
        }
    ],
    "buffers" : [
        {
            "byteLength" : 134256,
            "uri" : "data:application/octet-stream;base64,"
        }
    ]
}
